<svg xmlns="http://www.w3.org/2000/svg" xmlns:svg="http://www.w3.org/2000/svg" xmlns:xlink="http://www.w3.org/1999/xlink" id="svg8" width="1920" height="1080" version="1.1" viewBox="0 0 508 285.75"><defs id="defs2"><clipPath id="clipPath4732" clipPathUnits="userSpaceOnUse"><rect style="fill:#ff2a2a;fill-opacity:1;stroke-width:.26458332" id="rect4734" width="508" height="285.75" x="0" y="11.25"/></clipPath><clipPath id="clipPath855" clipPathUnits="userSpaceOnUse"><rect style="fill:red;fill-opacity:1;stroke-width:1.33057594" id="rect857" width="508" height="285.75" x="0" y="11.25"/></clipPath><clipPath id="clipPath833" clipPathUnits="userSpaceOnUse"><path id="path831" d="M 0,500 H 750 V 0 H 0 Z"/></clipPath><clipPath id="clipPath1105" clipPathUnits="userSpaceOnUse"><path id="path1103" d="M 0,500 H 750 V 0 H 0 Z"/></clipPath></defs><metadata id="metadata5"/><g id="layer1" transform="translate(0,-11.249983)"><rect id="rect3713" width="508" height="285.76" x="0" y="11.24" style="fill:#282a36;fill-opacity:1;stroke-width:.26458332"/><circle style="fill:#2b2e3b;fill-opacity:1;stroke-width:2.3558948" id="circle851" cx="254" cy="154.12" r="193.955" clip-path="url(#clipPath855)"/><circle id="circle849" cx="254" cy="154.12" r="115.161" style="fill:#363949;fill-opacity:1;stroke-width:1.39882123"/><circle style="fill:#414458;fill-opacity:1;stroke-width:.98435748" id="circle847" cx="254" cy="154.12" r="81.04"/><circle id="circle845" cx="254" cy="154.12" r="64.157" style="fill:#4c5067;fill-opacity:1;stroke-width:.77928787"/><circle style="fill:#575b75;fill-opacity:1;stroke-width:.67302412" id="circle843" cx="254" cy="154.12" r="55.408"/><circle id="circle841" cx="254" cy="154.12" r="50.132" style="fill:#626784;fill-opacity:1;stroke-width:.60892832"/><circle style="fill:#8a8ea8;fill-opacity:1;stroke-width:.57848275" id="path839" cx="254" cy="154.12" r="47.625"/><circle style="fill:#7c809c;fill-opacity:1;stroke-width:.27608696" id="path4742" cx="265.339" cy="121.147" r="6.804"/><circle style="fill:#7c809c;fill-opacity:1;stroke-width:.31461361" id="path4736" cx="278.899" cy="160.692" r="15.45"/><circle style="fill:#7c809c;fill-opacity:1;stroke-width:.29416406" id="path4738" cx="227.022" cy="167.307" r="8.457"/><circle style="fill:#7c809c;fill-opacity:1;stroke-width:.26458332" id="path4740" cx="268.08" cy="189.938" r="3.402"/><g id="g1872"><g style="fill:#282a36;fill-opacity:1" id="g1860" transform="matrix(0.14379617,-0.05868559,0.05868559,0.14379617,245.24161,177.43727)"><g style="display:inline;fill:#282a36;fill-opacity:1" id="g975" transform="matrix(-4.7025891,-2.9339897,2.9339897,-4.7025891,498.22943,447.9524)"><path d="m 0,0 c 0,0 -0.152,1.419 -0.961,3.259 -0.809,1.84 -2.001,5.425 0.095,7.392 0,0 -2.752,0.525 -2.569,2.745 0.185,2.218 0.512,7.213 -5.698,8.538 0,0 -0.259,10.218 -9.19,10.459 0,0 8.063,12.75 20.495,8.331 0,0 -7.698,-10.248 3.747,-21.181 0,0 0.667,-0.957 1.569,0.453 0.9,1.408 1.739,3.098 2.341,3.11 0,0 -0.698,1.944 1.295,3.405 0,0 1.247,-1.084 0.707,-3.342 l 1.817,-1.818 2.414,-0.886 c 1.823,1.437 3.33,0.761 3.33,0.761 -0.49,-2.421 -2.547,-2.605 -2.547,-2.605 0.242,-0.551 -0.94,-2.022 -1.84,-3.431 -0.901,-1.408 0.247,-1.613 0.247,-1.613 C 29.979,7.78 36.049,19.069 36.049,19.069 45.28,9.64 37.092,-3.03 37.092,-3.03 33.126,4.975 23.741,0.919 23.741,0.919 19.933,5.999 15.537,3.605 13.599,2.506 11.662,1.408 10.031,3.686 10.031,3.686 9.125,0.958 5.371,0.535 3.361,0.496 1.352,0.457 0,0 0,0" style="fill:#282a36;fill-opacity:1;fill-rule:evenodd;stroke:none" id="path977"/></g></g><circle id="path1862" cx="334.115" cy="195.571" r=".935" style="fill:#bd93f9;fill-opacity:1;stroke-width:.26458332"/><circle style="fill:#bd93f9;fill-opacity:1;stroke-width:.26458332" id="circle1864" cx="337.516" cy="194.177" r=".935"/></g><g id="g1886" transform="matrix(0.31090058,0.28583184,-0.28583184,0.31090058,177.79022,73.791012)"><g id="g1880" transform="matrix(0.14379617,-0.05868559,0.05868559,0.14379617,245.24161,177.43727)" style="fill:#282a36;fill-opacity:1"><g id="g1878" transform="matrix(-4.7025891,-2.9339897,2.9339897,-4.7025891,498.22943,447.9524)" style="display:inline;fill:#282a36;fill-opacity:1"><path id="path1876" style="fill:#282a36;fill-opacity:1;fill-rule:evenodd;stroke:none" d="m 0,0 c 0,0 -0.152,1.419 -0.961,3.259 -0.809,1.84 -2.001,5.425 0.095,7.392 0,0 -2.752,0.525 -2.569,2.745 0.185,2.218 0.512,7.213 -5.698,8.538 0,0 -0.259,10.218 -9.19,10.459 0,0 8.063,12.75 20.495,8.331 0,0 -7.698,-10.248 3.747,-21.181 0,0 0.667,-0.957 1.569,0.453 0.9,1.408 1.739,3.098 2.341,3.11 0,0 -0.698,1.944 1.295,3.405 0,0 1.247,-1.084 0.707,-3.342 l 1.817,-1.818 2.414,-0.886 c 1.823,1.437 3.33,0.761 3.33,0.761 -0.49,-2.421 -2.547,-2.605 -2.547,-2.605 0.242,-0.551 -0.94,-2.022 -1.84,-3.431 -0.901,-1.408 0.247,-1.613 0.247,-1.613 C 29.979,7.78 36.049,19.069 36.049,19.069 45.28,9.64 37.092,-3.03 37.092,-3.03 33.126,4.975 23.741,0.919 23.741,0.919 19.933,5.999 15.537,3.605 13.599,2.506 11.662,1.408 10.031,3.686 10.031,3.686 9.125,0.958 5.371,0.535 3.361,0.496 1.352,0.457 0,0 0,0"/></g></g><circle style="fill:#bd93f9;fill-opacity:1;stroke-width:.26458332" id="circle1882" cx="334.115" cy="195.571" r=".935"/><circle id="circle1884" cx="337.516" cy="194.177" r=".935" style="fill:#bd93f9;fill-opacity:1;stroke-width:.26458332"/></g><g id="g1900" transform="matrix(0.34382208,0.01438327,-0.01438327,0.34382208,169.58899,138.9557)"><g style="fill:#282a36;fill-opacity:1" id="g1894" transform="matrix(0.14379617,-0.05868559,0.05868559,0.14379617,245.24161,177.43727)"><g style="display:inline;fill:#282a36;fill-opacity:1" id="g1892" transform="matrix(-4.7025891,-2.9339897,2.9339897,-4.7025891,498.22943,447.9524)"><path d="m 0,0 c 0,0 -0.152,1.419 -0.961,3.259 -0.809,1.84 -2.001,5.425 0.095,7.392 0,0 -2.752,0.525 -2.569,2.745 0.185,2.218 0.512,7.213 -5.698,8.538 0,0 -0.259,10.218 -9.19,10.459 0,0 8.063,12.75 20.495,8.331 0,0 -7.698,-10.248 3.747,-21.181 0,0 0.667,-0.957 1.569,0.453 0.9,1.408 1.739,3.098 2.341,3.11 0,0 -0.698,1.944 1.295,3.405 0,0 1.247,-1.084 0.707,-3.342 l 1.817,-1.818 2.414,-0.886 c 1.823,1.437 3.33,0.761 3.33,0.761 -0.49,-2.421 -2.547,-2.605 -2.547,-2.605 0.242,-0.551 -0.94,-2.022 -1.84,-3.431 -0.901,-1.408 0.247,-1.613 0.247,-1.613 C 29.979,7.78 36.049,19.069 36.049,19.069 45.28,9.64 37.092,-3.03 37.092,-3.03 33.126,4.975 23.741,0.919 23.741,0.919 19.933,5.999 15.537,3.605 13.599,2.506 11.662,1.408 10.031,3.686 10.031,3.686 9.125,0.958 5.371,0.535 3.361,0.496 1.352,0.457 0,0 0,0" style="fill:#282a36;fill-opacity:1;fill-rule:evenodd;stroke:none" id="path1890"/></g></g><circle id="circle1896" cx="334.115" cy="195.571" r=".935" style="fill:#bd93f9;fill-opacity:1;stroke-width:.26458332"/><circle style="fill:#bd93f9;fill-opacity:1;stroke-width:.26458332" id="circle1898" cx="337.516" cy="194.177" r=".935"/></g><g id="g1914" transform="matrix(0.47174772,0.52040958,-0.52040958,0.47174772,141.52872,-123.0109)"><g id="g1908" transform="matrix(0.14379617,-0.05868559,0.05868559,0.14379617,245.24161,177.43727)" style="fill:#282a36;fill-opacity:1"><g id="g1906" transform="matrix(-4.7025891,-2.9339897,2.9339897,-4.7025891,498.22943,447.9524)" style="display:inline;fill:#282a36;fill-opacity:1"><path id="path1904" style="fill:#282a36;fill-opacity:1;fill-rule:evenodd;stroke:none" d="m 0,0 c 0,0 -0.152,1.419 -0.961,3.259 -0.809,1.84 -2.001,5.425 0.095,7.392 0,0 -2.752,0.525 -2.569,2.745 0.185,2.218 0.512,7.213 -5.698,8.538 0,0 -0.259,10.218 -9.19,10.459 0,0 8.063,12.75 20.495,8.331 0,0 -7.698,-10.248 3.747,-21.181 0,0 0.667,-0.957 1.569,0.453 0.9,1.408 1.739,3.098 2.341,3.11 0,0 -0.698,1.944 1.295,3.405 0,0 1.247,-1.084 0.707,-3.342 l 1.817,-1.818 2.414,-0.886 c 1.823,1.437 3.33,0.761 3.33,0.761 -0.49,-2.421 -2.547,-2.605 -2.547,-2.605 0.242,-0.551 -0.94,-2.022 -1.84,-3.431 -0.901,-1.408 0.247,-1.613 0.247,-1.613 C 29.979,7.78 36.049,19.069 36.049,19.069 45.28,9.64 37.092,-3.03 37.092,-3.03 33.126,4.975 23.741,0.919 23.741,0.919 19.933,5.999 15.537,3.605 13.599,2.506 11.662,1.408 10.031,3.686 10.031,3.686 9.125,0.958 5.371,0.535 3.361,0.496 1.352,0.457 0,0 0,0"/></g></g><circle style="fill:#bd93f9;fill-opacity:1;stroke-width:.26458332" id="circle1910" cx="334.115" cy="195.571" r=".935"/><circle id="circle1912" cx="337.516" cy="194.177" r=".935" style="fill:#bd93f9;fill-opacity:1;stroke-width:.26458332"/></g></g></svg>